<svg data-v-423bf9ae="" xmlns="http://www.w3.org/2000/svg" viewBox="0 0 358.05714198521207 60" class="font"><!----><!----><!----><g data-v-423bf9ae="" id="06c1fe24-9216-4a36-8a34-e6529db22b82" fill="black" transform="matrix(5.714285714285714,0,0,5.714285714285714,-6.057148592812666,-23.54285553523472)"><path d="M4.07 10.02L7.14 14.52L5.65 14.52L3.04 10.61L2.41 11.31L2.41 14.52L1.06 14.52L1.06 4.36L2.41 4.25L2.41 9.17L2.41 9.17Q2.41 9.34 2.41 9.71L2.41 9.71L2.41 9.71Q2.41 10.08 2.41 10.25L2.41 10.25L2.41 10.25Q2.63 10.01 3.03 9.56L3.03 9.56L3.03 9.56Q3.44 9.11 3.58 8.97L3.58 8.97L5.36 7.02L6.89 7.02L4.07 10.02ZM9.82 7.02L9.82 14.52L8.47 14.52L8.47 7.02L9.82 7.02ZM8.47 4.12L9.82 4.12L9.82 5.30L8.47 5.30L8.47 4.12ZM17.91 10.36L17.91 14.52L16.56 14.52L16.56 9.98L16.56 9.98Q16.56 9.54 16.56 9.28L16.56 9.28L16.56 9.28Q16.56 9.02 16.53 8.75L16.53 8.75L16.53 8.75Q16.51 8.48 16.48 8.35L16.48 8.35L16.48 8.35Q16.45 8.22 16.38 8.08L16.38 8.08L16.38 8.08Q16.31 7.95 16.24 7.90L16.24 7.90L16.24 7.90Q16.16 7.85 16.02 7.81L16.02 7.81L16.02 7.81Q15.87 7.77 15.73 7.76L15.73 7.76L15.73 7.76Q15.59 7.75 15.35 7.75L15.35 7.75L15.35 7.75Q14.83 7.75 14.46 7.81L14.46 7.81L14.46 7.81Q14.10 7.87 13.86 7.97L13.86 7.97L13.86 7.97Q13.63 8.07 13.50 8.26L13.50 8.26L13.50 8.26Q13.38 8.44 13.33 8.66L13.33 8.66L13.33 8.66Q13.28 8.87 13.28 9.19L13.28 9.19L13.28 9.19Q13.28 9.37 13.30 9.81L13.30 9.81L13.30 9.81Q13.32 10.25 13.32 10.52L13.32 10.52L13.32 14.52L11.98 14.52L11.98 7.02L13.21 7.02L13.34 7.86L13.34 7.86Q13.51 7.30 14.12 7.05L14.12 7.05L14.12 7.05Q14.73 6.81 15.57 6.81L15.57 6.81L15.57 6.81Q15.97 6.81 16.28 6.86L16.28 6.86L16.28 6.86Q16.58 6.90 16.82 7.02L16.82 7.02L16.82 7.02Q17.06 7.13 17.24 7.27L17.24 7.27L17.24 7.27Q17.41 7.42 17.53 7.65L17.53 7.65L17.53 7.65Q17.65 7.89 17.73 8.13L17.73 8.13L17.73 8.13Q17.80 8.38 17.84 8.75L17.84 8.75L17.84 8.75Q17.88 9.12 17.90 9.48L17.90 9.48L17.90 9.48Q17.91 9.85 17.91 10.36L17.91 10.36ZM22.95 13.68L22.95 13.68L22.95 13.68Q23.92 13.66 24.30 13.54L24.30 13.54L24.30 13.54Q24.68 13.41 24.68 13.05L24.68 13.05L24.68 13.05Q24.75 12.07 24.75 10.79L24.75 10.79L24.75 10.79Q24.75 10.36 24.72 9.57L24.72 9.57L24.72 9.57Q24.68 8.78 24.68 8.40L24.68 8.40L24.68 8.40Q24.68 8.29 24.65 8.19L24.65 8.19L24.65 8.19Q24.61 8.09 24.52 8.03L24.52 8.03L24.52 8.03Q24.44 7.96 24.35 7.92L24.35 7.92L24.35 7.92Q24.27 7.87 24.11 7.84L24.11 7.84L24.11 7.84Q23.96 7.81 23.85 7.79L23.85 7.79L23.85 7.79Q23.75 7.77 23.55 7.77L23.55 7.77L23.55 7.77Q23.36 7.76 23.25 7.76L23.25 7.76L23.25 7.76Q23.15 7.76 22.94 7.76L22.94 7.76L22.94 7.76Q22.74 7.76 22.63 7.76L22.63 7.76L22.63 7.76Q22.52 7.76 22.33 7.77L22.33 7.77L22.33 7.77Q22.13 7.77 22.03 7.79L22.03 7.79L22.03 7.79Q21.92 7.81 21.77 7.84L21.77 7.84L21.77 7.84Q21.62 7.87 21.53 7.92L21.53 7.92L21.53 7.92Q21.44 7.96 21.36 8.03L21.36 8.03L21.36 8.03Q21.27 8.09 21.24 8.19L21.24 8.19L21.24 8.19Q21.20 8.29 21.20 8.40L21.20 8.40L21.20 8.40Q21.20 8.78 21.16 9.57L21.16 9.57L21.16 9.57Q21.13 10.36 21.13 10.79L21.13 10.79L21.13 10.79Q21.13 12.07 21.21 13.05L21.21 13.05L21.21 13.05Q21.21 13.41 21.60 13.55L21.60 13.55L21.60 13.55Q22.00 13.68 22.95 13.68ZM22.93 14.62L22.93 14.62L22.93 14.62Q22.18 14.62 21.67 14.56L21.67 14.56L21.67 14.56Q21.16 14.50 20.80 14.29L20.80 14.29L20.80 14.29Q20.43 14.08 20.24 13.85L20.24 13.85L20.24 13.85Q20.05 13.61 19.94 13.10L19.94 13.10L19.94 13.10Q19.83 12.59 19.81 12.09L19.81 12.09L19.81 12.09Q19.78 11.59 19.78 10.71L19.78 10.71L19.78 10.71Q19.78 10.04 19.80 9.60L19.80 9.60L19.80 9.60Q19.82 9.15 19.88 8.73L19.88 8.73L19.88 8.73Q19.94 8.30 20.03 8.04L20.03 8.04L20.03 8.04Q20.13 7.77 20.30 7.54L20.30 7.54L20.30 7.54Q20.47 7.30 20.69 7.18L20.69 7.18L20.69 7.18Q20.91 7.05 21.25 6.96L21.25 6.96L21.25 6.96Q21.59 6.87 21.99 6.84L21.99 6.84L21.99 6.84Q22.39 6.81 22.94 6.81L22.94 6.81L22.94 6.81Q23.50 6.81 23.90 6.84L23.90 6.84L23.90 6.84Q24.29 6.87 24.63 6.96L24.63 6.96L24.63 6.96Q24.97 7.05 25.19 7.18L25.19 7.18L25.19 7.18Q25.41 7.30 25.58 7.54L25.58 7.54L25.58 7.54Q25.76 7.77 25.85 8.04L25.85 8.04L25.85 8.04Q25.94 8.30 26.00 8.73L26.00 8.73L26.00 8.73Q26.07 9.15 26.08 9.60L26.08 9.60L26.08 9.60Q26.10 10.04 26.10 10.71L26.10 10.71L26.10 10.71Q26.10 11.59 26.08 12.09L26.08 12.09L26.08 12.09Q26.05 12.59 25.94 13.10L25.94 13.10L25.94 13.10Q25.83 13.61 25.64 13.85L25.64 13.85L25.64 13.85Q25.44 14.09 25.08 14.29L25.08 14.29L25.08 14.29Q24.71 14.50 24.21 14.56L24.21 14.56L24.21 14.56Q23.70 14.62 22.93 14.62ZM31.86 10.84L27.85 10.84L27.85 9.89L31.86 9.89L31.86 10.84ZM39.47 9.18L39.47 9.18L38.36 9.37L38.22 8.42L38.22 8.42Q38.17 8.09 38.09 8.00L38.09 8.00L38.09 8.00Q37.91 7.79 37.11 7.77L37.11 7.77L37.11 7.77Q36.91 7.76 36.68 7.76L36.68 7.76L36.68 7.76Q35.75 7.76 35.46 7.86L35.46 7.86L35.46 7.86Q35.15 7.92 35.01 8.48L35.01 8.48L35.01 8.48Q34.86 9.05 34.86 9.87L34.86 9.87L34.87 11.05L34.87 11.05Q34.87 11.30 34.87 11.73L34.87 11.73L34.87 11.73Q34.87 12.29 34.87 12.52L34.87 12.52L34.87 12.52Q34.87 12.75 34.93 13.04L34.93 13.04L34.93 13.04Q34.99 13.33 35.07 13.40L35.07 13.40L35.07 13.40Q35.15 13.47 35.37 13.57L35.37 13.57L35.37 13.57Q35.59 13.67 35.84 13.67L35.84 13.67L35.84 13.67Q36.09 13.68 36.56 13.68L36.56 13.68L36.56 13.68Q36.93 13.68 37.20 13.65L37.20 13.65L37.20 13.65Q37.47 13.62 37.66 13.59L37.66 13.59L37.66 13.59Q37.84 13.55 37.96 13.46L37.96 13.46L37.96 13.46Q38.08 13.36 38.15 13.29L38.15 13.29L38.15 13.29Q38.21 13.21 38.25 13.05L38.25 13.05L38.25 13.05Q38.28 12.89 38.29 12.78L38.29 12.78L38.29 12.78Q38.30 12.66 38.32 12.42L38.32 12.42L38.32 12.42Q38.33 12.19 38.35 12.02L38.35 12.02L39.47 12.22L39.47 12.22Q39.43 12.75 39.38 13.07L39.38 13.07L39.38 13.07Q39.33 13.39 39.21 13.69L39.21 13.69L39.21 13.69Q39.09 13.99 38.91 14.15L38.91 14.15L38.91 14.15Q38.73 14.30 38.41 14.42L38.41 14.42L38.41 14.42Q38.09 14.55 37.67 14.58L37.67 14.58L37.67 14.58Q37.25 14.62 36.62 14.62L36.62 14.62L36.62 14.62Q36.17 14.62 35.81 14.59L35.81 14.59L35.81 14.59Q35.45 14.57 35.16 14.48L35.16 14.48L35.16 14.48Q34.86 14.40 34.64 14.32L34.64 14.32L34.64 14.32Q34.43 14.24 34.26 14.04L34.26 14.04L34.26 14.04Q34.09 13.84 33.98 13.70L33.98 13.70L33.98 13.70Q33.87 13.56 33.79 13.23L33.79 13.23L33.79 13.23Q33.71 12.91 33.67 12.69L33.67 12.69L33.67 12.69Q33.63 12.46 33.61 12.00L33.61 12.00L33.61 12.00Q33.59 11.54 33.59 11.22L33.59 11.22L33.59 11.22Q33.58 10.90 33.58 10.29L33.58 10.29L33.58 10.29Q33.58 9.74 33.61 9.34L33.61 9.34L33.61 9.34Q33.63 8.94 33.69 8.58L33.69 8.58L33.69 8.58Q33.75 8.21 33.85 7.97L33.85 7.97L33.85 7.97Q33.95 7.72 34.11 7.51L34.11 7.51L34.11 7.51Q34.28 7.30 34.50 7.18L34.50 7.18L34.50 7.18Q34.71 7.05 35.03 6.97L35.03 6.97L35.03 6.97Q35.35 6.88 35.73 6.84L35.73 6.84L35.73 6.84Q36.11 6.81 36.61 6.81L36.61 6.81L36.61 6.81Q37.26 6.81 37.70 6.87L37.70 6.87L37.70 6.87Q38.14 6.94 38.49 7.09L38.49 7.09L38.49 7.09Q38.83 7.24 39.03 7.52L39.03 7.52L39.03 7.52Q39.22 7.79 39.33 8.19L39.33 8.19L39.33 8.19Q39.44 8.59 39.47 9.18ZM44.60 6.85L44.60 6.85L44.55 7.99L44.55 7.99Q44.29 7.96 44.06 7.96L44.06 7.96L44.06 7.96Q43.57 7.96 43.27 8.05L43.27 8.05L43.27 8.05Q42.97 8.15 42.82 8.38L42.82 8.38L42.82 8.38Q42.66 8.61 42.61 8.91L42.61 8.91L42.61 8.91Q42.56 9.21 42.56 9.71L42.56 9.71L42.56 9.71Q42.56 9.99 42.58 10.53L42.58 10.53L42.58 10.53Q42.61 11.07 42.61 11.30L42.61 11.30L42.61 14.52L41.26 14.52L41.26 7.02L42.49 7.02L42.62 7.86L42.62 7.86Q42.83 7.37 43.26 7.10L43.26 7.10L43.26 7.10Q43.70 6.83 44.30 6.83L44.30 6.83L44.30 6.83Q44.45 6.83 44.60 6.85ZM47.58 7.02L47.58 14.52L46.23 14.52L46.23 7.02L47.58 7.02ZM46.23 4.12L47.58 4.12L47.58 5.30L46.23 5.30L46.23 4.12ZM52.71 13.57L52.71 13.57L52.68 14.53L52.68 14.53Q52.10 14.62 51.64 14.62L51.64 14.62L51.64 14.62Q51.14 14.62 50.81 14.51L50.81 14.51L50.81 14.51Q50.49 14.40 50.33 14.16L50.33 14.16L50.33 14.16Q50.16 13.92 50.10 13.63L50.10 13.63L50.10 13.63Q50.04 13.34 50.04 12.89L50.04 12.89L50.04 7.79L49.02 7.79L49.02 7.02L50.04 7.02L50.04 4.89L51.38 4.78L51.38 7.02L52.76 7.02L52.76 7.79L51.38 7.79L51.38 12.43L51.38 12.43Q51.38 13.17 51.45 13.39L51.45 13.39L51.45 13.39Q51.52 13.61 51.84 13.61L51.84 13.61L51.84 13.61Q52.16 13.61 52.71 13.57ZM55.87 7.02L55.87 14.52L54.52 14.52L54.52 7.02L55.87 7.02ZM54.52 4.12L55.87 4.12L55.87 5.30L54.52 5.30L54.52 4.12ZM63.72 9.18L63.72 9.18L62.61 9.37L62.47 8.42L62.47 8.42Q62.41 8.09 62.34 8.00L62.34 8.00L62.34 8.00Q62.16 7.79 61.35 7.77L61.35 7.77L61.35 7.77Q61.16 7.76 60.93 7.76L60.93 7.76L60.93 7.76Q60.00 7.76 59.71 7.86L59.71 7.86L59.71 7.86Q59.40 7.92 59.25 8.48L59.25 8.48L59.25 8.48Q59.11 9.05 59.11 9.87L59.11 9.87L59.12 11.05L59.12 11.05Q59.12 11.30 59.12 11.73L59.12 11.73L59.12 11.73Q59.12 12.29 59.12 12.52L59.12 12.52L59.12 12.52Q59.12 12.75 59.18 13.04L59.18 13.04L59.18 13.04Q59.24 13.33 59.32 13.40L59.32 13.40L59.32 13.40Q59.40 13.47 59.62 13.57L59.62 13.57L59.62 13.57Q59.83 13.67 60.08 13.67L60.08 13.67L60.08 13.67Q60.33 13.68 60.81 13.68L60.81 13.68L60.81 13.68Q61.17 13.68 61.44 13.65L61.44 13.65L61.44 13.65Q61.71 13.62 61.90 13.59L61.90 13.59L61.90 13.59Q62.09 13.55 62.21 13.46L62.21 13.46L62.21 13.46Q62.33 13.36 62.40 13.29L62.40 13.29L62.40 13.29Q62.46 13.21 62.49 13.05L62.49 13.05L62.49 13.05Q62.53 12.89 62.54 12.78L62.54 12.78L62.54 12.78Q62.55 12.66 62.56 12.42L62.56 12.42L62.56 12.42Q62.58 12.19 62.60 12.02L62.60 12.02L63.72 12.22L63.72 12.22Q63.68 12.75 63.63 13.07L63.63 13.07L63.63 13.07Q63.57 13.39 63.45 13.69L63.45 13.69L63.45 13.69Q63.33 13.99 63.15 14.15L63.15 14.15L63.15 14.15Q62.97 14.30 62.65 14.42L62.65 14.42L62.65 14.42Q62.34 14.55 61.92 14.58L61.92 14.58L61.92 14.58Q61.50 14.62 60.87 14.62L60.87 14.62L60.87 14.62Q60.42 14.62 60.06 14.59L60.06 14.59L60.06 14.59Q59.70 14.57 59.40 14.48L59.40 14.48L59.40 14.48Q59.11 14.40 58.89 14.32L58.89 14.32L58.89 14.32Q58.67 14.24 58.51 14.04L58.51 14.04L58.51 14.04Q58.34 13.84 58.23 13.70L58.23 13.70L58.23 13.70Q58.11 13.56 58.04 13.23L58.04 13.23L58.04 13.23Q57.96 12.91 57.92 12.69L57.92 12.69L57.92 12.69Q57.88 12.46 57.86 12.00L57.86 12.00L57.86 12.00Q57.84 11.54 57.84 11.22L57.84 11.22L57.84 11.22Q57.83 10.90 57.83 10.29L57.83 10.29L57.83 10.29Q57.83 9.74 57.85 9.34L57.85 9.34L57.85 9.34Q57.87 8.94 57.93 8.58L57.93 8.58L57.93 8.58Q58.00 8.21 58.10 7.97L58.10 7.97L58.10 7.97Q58.19 7.72 58.36 7.51L58.36 7.51L58.36 7.51Q58.53 7.30 58.74 7.18L58.74 7.18L58.74 7.18Q58.96 7.05 59.28 6.97L59.28 6.97L59.28 6.97Q59.60 6.88 59.98 6.84L59.98 6.84L59.98 6.84Q60.35 6.81 60.86 6.81L60.86 6.81L60.86 6.81Q61.51 6.81 61.95 6.87L61.95 6.87L61.95 6.87Q62.39 6.94 62.73 7.09L62.73 7.09L62.73 7.09Q63.08 7.24 63.27 7.52L63.27 7.52L63.27 7.52Q63.47 7.79 63.58 8.19L63.58 8.19L63.58 8.19Q63.69 8.59 63.72 9.18Z"></path></g><!----><!----></svg>